<?xml version="1.0" encoding="UTF-8" standalone="no"?>
<svg width="32px" height="31px" viewBox="0 0 32 31" version="1.1" xmlns="http://www.w3.org/2000/svg" xmlns:xlink="http://www.w3.org/1999/xlink" xmlns:sketch="http://www.bohemiancoding.com/sketch/ns">
    <!-- Generator: Sketch 3.3.3 (12072) - http://www.bohemiancoding.com/sketch -->
    <title>linkedin</title>
    <desc>Created with Sketch.</desc>
    <defs></defs>
    <g id="Page-1" stroke="none" stroke-width="1" fill="none" fill-rule="evenodd" sketch:type="MSPage">
        <g id="A4" sketch:type="MSArtboardGroup" transform="translate(-226.000000, -90.000000)" fill="#FFFFFF">
            <g id="linkedin" sketch:type="MSLayerGroup" transform="translate(226.000000, 90.000000)">
                <path d="M6.79865604,10 L0,10 L0,30.4271393 L6.79865604,30.4271393 L6.79865604,10 Z" id="Path" sketch:type="MSShapeGroup"></path>
                <path d="M7.6484541,3.52837213 C7.60432815,1.52550406 6.17206744,0 3.84629003,0 C1.52051262,0 0,1.52550406 0,3.52837213 C0,5.48975386 1.47557203,7.05918463 3.75803812,7.05918463 L3.80148521,7.05918463 C6.17206744,7.05918463 7.6484541,5.48975386 7.6484541,3.52837213 Z" id="Path" sketch:type="MSShapeGroup"></path>
                <path d="M31.7553571,18.1945107 C31.7553571,11.920177 28.401377,9 23.9275479,9 C20.3179088,9 18.7018126,10.9826672 17.7994707,12.373544 L17.7994707,9.48021111 L11,9.48021111 C11.0896096,11.3969883 11,29.9073504 11,29.9073504 L17.7994707,29.9073504 L17.7994707,18.4991506 C17.7994707,17.8886507 17.8435966,17.2796421 18.023359,16.8425443 C18.5147185,15.6229002 19.6334813,14.360143 21.5117536,14.360143 C23.9728958,14.360143 24.956701,16.2332645 24.956701,18.9782771 L24.956701,29.9068081 L31.7550855,29.9068081 L31.7553571,18.1945107 Z" id="Path" sketch:type="MSShapeGroup"></path>
            </g>
        </g>
    </g>
</svg>