<?xml version="1.0" encoding="UTF-8" standalone="no"?>
<svg width="29px" height="24px" viewBox="0 0 29 24" version="1.1" xmlns="http://www.w3.org/2000/svg" xmlns:xlink="http://www.w3.org/1999/xlink" xmlns:sketch="http://www.bohemiancoding.com/sketch/ns">
    <!-- Generator: Sketch 3.3.3 (12072) - http://www.bohemiancoding.com/sketch -->
    <title>twitter</title>
    <desc>Created with Sketch.</desc>
    <defs></defs>
    <g id="Page-1" stroke="none" stroke-width="1" fill="none" fill-rule="evenodd" sketch:type="MSPage">
        <g id="A4" sketch:type="MSArtboardGroup" transform="translate(-155.000000, -93.000000)" fill="#FFFFFF">
            <path d="M169.101503,99.3843758 L169.164456,100.422443 L168.115237,100.295333 C164.29608,99.8080769 160.959564,98.1556426 158.126673,95.3804004 L156.741704,94.0033719 L156.384969,95.0202545 C155.629531,97.2870554 156.112172,99.6809665 157.686001,101.291031 C158.525376,102.180803 158.336516,102.307913 156.888594,101.778287 C156.384969,101.608807 155.944297,101.481696 155.902328,101.545251 C155.755438,101.693547 156.259063,103.621387 156.657766,104.384049 C157.20336,105.443301 158.315532,106.481369 159.532626,107.095736 L160.560861,107.582992 L159.343767,107.604177 C158.168641,107.604177 158.126673,107.625362 158.252579,108.070248 C158.672266,109.447277 160.330032,110.909046 162.176658,111.544597 L163.477689,111.989483 L162.344533,112.667405 C160.665783,113.641918 158.693251,114.192729 156.720719,114.235099 C155.776422,114.256284 155,114.341024 155,114.40458 C155,114.61643 157.560094,115.802793 159.049985,116.268864 C163.519658,117.645893 168.828706,117.052711 172.815739,114.70117 C175.64863,113.027551 178.481521,109.701497 179.803537,106.481369 C180.517006,104.76538 181.230475,101.629992 181.230475,100.125853 C181.230475,99.1513402 181.293428,99.0242299 182.468553,97.8590518 C183.161038,97.1811301 183.811554,96.4396532 183.93746,96.2278026 C184.147304,95.8252866 184.126319,95.8252866 183.056116,96.1854325 C181.272444,96.8209842 181.020631,96.7362439 181.901975,95.7829165 C182.552491,95.1049947 183.328913,93.8762616 183.328913,93.5161156 C183.328913,93.4525605 183.014147,93.5584857 182.657413,93.7491512 C182.279694,93.9610018 181.440319,94.2787776 180.810787,94.4694431 L179.677631,94.829589 L178.649396,94.1304822 C178.082818,93.7491512 177.285411,93.3254501 176.865724,93.1983398 C175.79552,92.901749 174.158739,92.9441191 173.193457,93.28308 C170.57041,94.2364075 168.912644,96.6938738 169.101503,99.3843758 Z" id="twitter" sketch:type="MSShapeGroup"></path>
        </g>
    </g>
</svg>